# xmcd
#
# Track frame offsets:
#  182
#  10730
#  25222
#  37547
#  59345
#  72235
#  83612
#  100082
#  113025
#  126022
#  141167
#  155260
#  168507
#  181525
#  195017
#  207465
#  221595
#  235925
#
# Disc length: 3330 seconds
#
# Revision: 2
# Processed by: cddbd v1.5.2PL0 Copyright (c) Steve Scherf et al.
# Submitted via: Collectorz.com_Music_Collector 6.10
#
DISCID=dc0d0012
DTITLE=Waters, Muddy - "Got My Mojo Working"
DYEAR=1993
DGENRE=Blues
TTITLE0=Sugar Sweet
TTITLE1=Baby, Please Don't Go
TTITLE2=Got My Mojo Working
TTITLE3=Twenty Four Hours
TTITLE4=All Aboard
TTITLE5=I Can't Call Her Sugar
TTITLE6=Blow Wind Blow
TTITLE7=Hoochie Coochie
TTITLE8=I Just Want to Make Love To You
TTITLE9=Walkin' Thru The Park
TTITLE10=Rollin' Stone
TTITLE11=You Can't Lose What You Ain't Never Had
TTITLE12=Louisiana Blues
TTITLE13=She Moves Me
TTITLE14=Long Distance Call
TTITLE15=I Want You To Love Me
TTITLE16=Forty Days And Forty Nights
TTITLE17=I'm Ready
EXTD=
EXTT0=
EXTT1=
EXTT2=
EXTT3=
EXTT4=
EXTT5=
EXTT6=
EXTT7=
EXTT8=
EXTT9=
EXTT10=
EXTT11=
EXTT12=
EXTT13=
EXTT14=
EXTT15=
EXTT16=
EXTT17=
PLAYORDER=
